#tb 0: 1/25
0,          0,          0,        1,   518400, 0x21baedbf
0,          1,          1,        1,   518400, 0x6003273c
0,          2,          2,        1,   518400, 0x935d45d7
0,          3,          3,        1,   518400, 0x00485000
0,          4,          4,        1,   518400, 0x31b191ff
0,          5,          5,        1,   518400, 0xe334135a
0,          6,          6,        1,   518400, 0xc4d7bf2c
0,          7,          7,        1,   518400, 0x7106ac82
0,          8,          8,        1,   518400, 0xeb277b07
0,          9,          9,        1,   518400, 0xaf1ee80f
0,         10,         10,        1,   518400, 0x8c7d1bad
0,         11,         11,        1,   518400, 0x0e24ae6c
0,         12,         12,        1,   518400, 0x89c216b4
0,         13,         13,        1,   518400, 0x991fbcb1
0,         14,         14,        1,   518400, 0x87411486
0,         15,         15,        1,   518400, 0x0151b48f
0,         16,         16,        1,   518400, 0x3f4d5a91
0,         17,         17,        1,   518400, 0x48ea911b
0,         18,         18,        1,   518400, 0x6bec19a0
0,         19,         19,        1,   518400, 0x10233bf6
0,         20,         20,        1,   518400, 0x2a36ae4d
0,         21,         21,        1,   518400, 0xd8d3224b
0,         22,         22,        1,   518400, 0xf5c5f81f
0,         23,         23,        1,   518400, 0x30054561
0,         24,         24,        1,   518400, 0x67ea1c9f
0,         25,         25,        1,   518400, 0xbbda3984
0,         26,         26,        1,   518400, 0x9af40c71
0,         27,         27,        1,   518400, 0xb0cf0d12
0,         28,         28,        1,   518400, 0x569b9866
0,         29,         29,        1,   518400, 0xffd72ee5
